<svg width="376" height="131" viewBox="0 0 376 131" fill="none" xmlns="http://www.w3.org/2000/svg">
<g filter="url(#filter0_d_340_12)">
<path d="M14.2632 111H3.95459C3.71761 111 3.59912 110.852 3.59912 110.556L3.77686 48.0376C3.77686 47.8006 3.89535 47.6821 4.13232 47.6821H15.2407C15.4777 47.6821 15.6851 47.8006 15.8628 48.0376L24.1719 60.0347L32.4365 48.0376C32.6143 47.8006 32.8364 47.6821 33.103 47.6821H44.2559C44.5225 47.6821 44.6558 47.8006 44.6558 48.0376L44.8335 110.556C44.8335 110.852 44.715 111 44.478 111H34.1694C33.9325 111 33.814 110.852 33.814 110.556L33.7251 64.1226L24.1719 77.9858L14.7075 64.1226L14.6187 110.556C14.6187 110.852 14.5002 111 14.2632 111ZM69.2275 111.889C66.0283 111.889 63.0661 111.059 60.3408 109.4C57.6156 107.742 55.4383 105.52 53.8091 102.735C52.2095 99.9212 51.4097 96.8553 51.4097 93.5376L51.5874 48.0376C51.5874 47.8006 51.7059 47.6821 51.9429 47.6821H62.1626C62.3996 47.6821 62.5181 47.8006 62.5181 48.0376V93.5376C62.5181 95.5815 63.1698 97.3293 64.4731 98.7808C65.7765 100.203 67.3613 100.914 69.2275 100.914C71.1826 100.914 72.8118 100.203 74.1152 98.7808C75.4186 97.3293 76.0703 95.5815 76.0703 93.5376V48.0376C76.0703 47.8006 76.1888 47.6821 76.4258 47.6821H86.6455C86.8825 47.6821 87.001 47.8006 87.001 48.0376L87.1787 93.5376C87.1787 96.8849 86.3789 99.9657 84.7793 102.78C83.1501 105.564 80.9876 107.786 78.292 109.445C75.5964 111.074 72.5749 111.889 69.2275 111.889ZM104.241 111H95.1323C94.6584 111 94.4214 110.793 94.4214 110.378L94.3325 48.3931C94.3325 47.9191 94.5695 47.6821 95.0435 47.6821H103.264L118.638 83.54L118.193 48.3931C118.193 47.9191 118.46 47.6821 118.993 47.6821H128.013C128.369 47.6821 128.546 47.9191 128.546 48.3931L128.635 110.467C128.635 110.822 128.487 111 128.191 111H120.193L104.419 77.4971L105.085 110.289C105.085 110.763 104.804 111 104.241 111ZM153.296 111.889C150.008 111.889 147.001 111.059 144.276 109.4C141.58 107.742 139.433 105.52 137.833 102.735C136.263 99.9212 135.478 96.7961 135.478 93.3599L135.567 64.9668C135.567 61.5898 136.337 58.5387 137.877 55.8135C139.418 53.0586 141.536 50.8517 144.231 49.1929C146.957 47.5044 149.978 46.6602 153.296 46.6602C156.673 46.6602 159.68 47.4748 162.316 49.104C164.982 50.7332 167.1 52.9401 168.67 55.7246C170.27 58.4795 171.069 61.5602 171.069 64.9668V69.1436C171.069 69.3805 170.951 69.499 170.714 69.499H160.494C160.257 69.499 160.139 69.3805 160.139 69.1436V64.9668C160.139 62.9525 159.487 61.2196 158.184 59.7681C156.88 58.3166 155.251 57.5908 153.296 57.5908C151.133 57.5908 149.475 58.3314 148.319 59.8125C147.164 61.2936 146.586 63.0117 146.586 64.9668V93.3599C146.586 95.5815 147.238 97.4033 148.542 98.8252C149.845 100.217 151.43 100.914 153.296 100.914C155.251 100.914 156.88 100.143 158.184 98.603C159.487 97.033 160.139 95.2853 160.139 93.3599V89.1387C160.139 88.9017 160.257 88.7832 160.494 88.7832H170.803C171.04 88.7832 171.158 88.9017 171.158 89.1387V93.3599C171.158 96.7664 170.358 99.8768 168.759 102.691C167.13 105.475 164.982 107.712 162.316 109.4C159.65 111.059 156.643 111.889 153.296 111.889ZM188.443 111H178.134C177.897 111 177.779 110.852 177.779 110.556L177.868 48.0376C177.868 47.8006 178.016 47.6821 178.312 47.6821H188.443C188.739 47.6821 188.887 47.8006 188.887 48.0376L188.798 72.7871H202.439V48.0376C202.439 47.8006 202.558 47.6821 202.795 47.6821H212.926C213.222 47.6821 213.37 47.8006 213.37 48.0376L213.548 110.556C213.548 110.852 213.4 111 213.104 111H202.884C202.588 111 202.439 110.852 202.439 110.556V83.8066H188.798V110.556C188.798 110.852 188.68 111 188.443 111Z" fill="url(#paint0_linear_340_12)"/>
</g>
<g filter="url(#filter1_d_340_12)">
<path d="M219.422 120V66M225.241 120V94.0526C225.241 92.9481 226.137 92.0526 227.241 92.0526H260.399C261.503 92.0526 262.399 91.1572 262.399 90.0526V66M256.131 66V120M278.067 66C278.067 66 278.067 81.6316 278.067 99.6316C278.067 117.632 308.509 117.632 308.509 99.6316C308.509 85.8308 308.509 75.093 308.509 70.8341C308.509 69.7295 309.405 68.8421 310.509 68.8421H312.329C313.434 68.8421 314.329 69.733 314.329 70.8376C314.329 74.1477 314.329 82.2175 314.329 99.6316C314.329 124.737 271.8 126.158 271.8 96.3158M324.626 87.3158V115.632C324.626 116.736 325.513 117.632 326.617 117.632C331.78 117.632 345.894 117.632 355.963 117.632C368.498 117.632 369.393 96.3158 355.963 96.3158C342.533 96.3158 344.771 96.3158 339.399 96.3158C334.027 96.3158 333.131 87.3158 339.399 87.3158C345.666 87.3158 344.771 87.3158 355.963 87.3158C367.155 87.3158 369.393 66 355.963 66C342.533 66 329.998 66 326.416 66C322.835 66 323.283 72.6316 326.416 72.6316C329.55 72.6316 347.457 72.6316 353.277 72.6316C359.097 72.6316 359.097 81.1579 353.277 81.1579M338.504 102.947C338.504 102.947 346.562 102.947 353.277 102.947C359.992 102.947 359.992 111.947 353.277 111.947" stroke="url(#paint1_linear_340_12)" stroke-width="5" stroke-linecap="round"/>
</g>
<defs>
<filter id="filter0_d_340_12" x="2.59912" y="46.6602" width="217.949" height="73.2285" filterUnits="userSpaceOnUse" color-interpolation-filters="sRGB">
<feFlood flood-opacity="0" result="BackgroundImageFix"/>
<feColorMatrix in="SourceAlpha" type="matrix" values="0 0 0 0 0 0 0 0 0 0 0 0 0 0 0 0 0 0 127 0" result="hardAlpha"/>
<feOffset dx="3" dy="4"/>
<feGaussianBlur stdDeviation="2"/>
<feColorMatrix type="matrix" values="0 0 0 0 0 0 0 0 0 0 0 0 0 0 0 0 0 0 0.4 0"/>
<feBlend mode="normal" in2="BackgroundImageFix" result="effect1_dropShadow_340_12"/>
<feBlend mode="normal" in="SourceGraphic" in2="effect1_dropShadow_340_12" result="shape"/>
</filter>
<filter id="filter1_d_340_12" x="215.922" y="63.5" width="159.281" height="67" filterUnits="userSpaceOnUse" color-interpolation-filters="sRGB">
<feFlood flood-opacity="0" result="BackgroundImageFix"/>
<feColorMatrix in="SourceAlpha" type="matrix" values="0 0 0 0 0 0 0 0 0 0 0 0 0 0 0 0 0 0 127 0" result="hardAlpha"/>
<feOffset dx="3" dy="4"/>
<feGaussianBlur stdDeviation="2"/>
<feColorMatrix type="matrix" values="0 0 0 0 0 0 0 0 0 0 0 0 0 0 0 0 0 0 0.4 0"/>
<feBlend mode="normal" in2="BackgroundImageFix" result="effect1_dropShadow_340_12"/>
<feBlend mode="normal" in="SourceGraphic" in2="effect1_dropShadow_340_12" result="shape"/>
</filter>
<linearGradient id="paint0_linear_340_12" x1="0" y1="62" x2="319.614" y2="62" gradientUnits="userSpaceOnUse">
<stop stop-color="#EA4537"/>
<stop offset="0.331731" stop-color="#EC284C"/>
<stop offset="1" stop-color="#400B07"/>
</linearGradient>
<linearGradient id="paint1_linear_340_12" x1="292.562" y1="66" x2="292.562" y2="120" gradientUnits="userSpaceOnUse">
<stop stop-color="#EF2D50"/>
<stop offset="0.306565" stop-color="#ED2D4D"/>
<stop offset="1" stop-color="#C12517"/>
</linearGradient>
</defs>
</svg>
