<svg id="visual" viewBox="0 0 1080 1900" width="1080" height="1900" xmlns="http://www.w3.org/2000/svg" xmlns:xlink="http://www.w3.org/1999/xlink" version="1.1"><rect x="0" y="0" width="1080" height="1900" fill="#940421"></rect><defs><linearGradient id="grad1_0" x1="0%" y1="100%" x2="100%" y2="0%"><stop offset="30%" stop-color="#f72d57" stop-opacity="1"></stop><stop offset="70%" stop-color="#f72d57" stop-opacity="1"></stop></linearGradient></defs><defs><linearGradient id="grad1_1" x1="0%" y1="100%" x2="100%" y2="0%"><stop offset="30%" stop-color="#f72d57" stop-opacity="1"></stop><stop offset="70%" stop-color="#d52043" stop-opacity="1"></stop></linearGradient></defs><defs><linearGradient id="grad1_2" x1="0%" y1="100%" x2="100%" y2="0%"><stop offset="30%" stop-color="#b41331" stop-opacity="1"></stop><stop offset="70%" stop-color="#d52043" stop-opacity="1"></stop></linearGradient></defs><defs><linearGradient id="grad1_3" x1="0%" y1="100%" x2="100%" y2="0%"><stop offset="30%" stop-color="#b41331" stop-opacity="1"></stop><stop offset="70%" stop-color="#940421" stop-opacity="1"></stop></linearGradient></defs><defs><linearGradient id="grad2_0" x1="0%" y1="100%" x2="100%" y2="0%"><stop offset="30%" stop-color="#f72d57" stop-opacity="1"></stop><stop offset="70%" stop-color="#f72d57" stop-opacity="1"></stop></linearGradient></defs><defs><linearGradient id="grad2_1" x1="0%" y1="100%" x2="100%" y2="0%"><stop offset="30%" stop-color="#d52043" stop-opacity="1"></stop><stop offset="70%" stop-color="#f72d57" stop-opacity="1"></stop></linearGradient></defs><defs><linearGradient id="grad2_2" x1="0%" y1="100%" x2="100%" y2="0%"><stop offset="30%" stop-color="#d52043" stop-opacity="1"></stop><stop offset="70%" stop-color="#b41331" stop-opacity="1"></stop></linearGradient></defs><defs><linearGradient id="grad2_3" x1="0%" y1="100%" x2="100%" y2="0%"><stop offset="30%" stop-color="#940421" stop-opacity="1"></stop><stop offset="70%" stop-color="#b41331" stop-opacity="1"></stop></linearGradient></defs><g transform="translate(1080, 1900)"><path d="M-864 0C-829.4 -81.2 -794.8 -162.4 -775.1 -251.8C-755.4 -341.3 -750.5 -439.1 -699 -507.8C-647.5 -576.6 -549.3 -616.2 -462.6 -636.7C-375.8 -657.2 -300.5 -658.6 -225.3 -693.3C-150.1 -728 -75 -796 0 -864L0 0Z" fill="#a40c29"></path><path d="M-648 0C-622.1 -60.9 -596.1 -121.8 -581.3 -188.9C-566.5 -256 -562.9 -329.4 -524.2 -380.9C-485.6 -432.4 -412 -462.1 -346.9 -477.5C-281.9 -492.9 -225.4 -494 -169 -520C-112.6 -546 -56.3 -597 0 -648L0 0Z" fill="#c41a3a"></path><path d="M-432 0C-414.7 -40.6 -397.4 -81.2 -387.6 -125.9C-377.7 -170.7 -375.3 -219.6 -349.5 -253.9C-323.7 -288.3 -274.7 -308.1 -231.3 -318.3C-187.9 -328.6 -150.2 -329.3 -112.6 -346.7C-75 -364 -37.5 -398 0 -432L0 0Z" fill="#e6274d"></path><path d="M-216 0C-207.4 -20.3 -198.7 -40.6 -193.8 -63C-188.8 -85.3 -187.6 -109.8 -174.7 -127C-161.9 -144.1 -137.3 -154 -115.6 -159.2C-94 -164.3 -75.1 -164.7 -56.3 -173.3C-37.5 -182 -18.8 -199 0 -216L0 0Z" fill="#f72d57"></path></g><g transform="translate(0, 0)"><path d="M864 0C868.7 98.1 873.4 196.2 821.7 267C770 337.8 661.9 381.2 584.9 425C507.9 468.7 462.1 512.7 412.6 567.9C363.2 623.2 310.1 689.7 240.7 740.9C171.4 792.1 85.7 828 0 864L0 0Z" fill="#a40c29"></path><path d="M648 0C651.5 73.6 655.1 147.2 616.3 200.2C577.5 253.3 496.4 285.9 438.7 318.7C381 351.5 346.6 384.5 309.5 425.9C272.4 467.4 232.6 517.2 180.5 555.7C128.5 594.1 64.3 621 0 648L0 0Z" fill="#c41a3a"></path><path d="M432 0C434.4 49.1 436.7 98.1 410.9 133.5C385 168.9 331 190.6 292.5 212.5C254 234.3 231 256.3 206.3 284C181.6 311.6 155 344.8 120.4 370.4C85.7 396 42.8 414 0 432L0 0Z" fill="#e6274d"></path><path d="M216 0C217.2 24.5 218.4 49.1 205.4 66.7C192.5 84.4 165.5 95.3 146.2 106.2C127 117.2 115.5 128.2 103.2 142C90.8 155.8 77.5 172.4 60.2 185.2C42.8 198 21.4 207 0 216L0 0Z" fill="#f72d57"></path></g></svg>